<svg width="87" height="102" viewBox="0 0 87 102" fill="none" xmlns="http://www.w3.org/2000/svg">
<path fill-rule="evenodd" clip-rule="evenodd" d="M43.5073 63.9504C57.372 63.9504 68.6116 49.6346 68.6116 31.9752C68.6116 14.3158 57.372 0 43.5073 0C29.6426 0 18.4031 14.3158 18.4031 31.9752C18.4031 49.6346 29.6426 63.9504 43.5073 63.9504ZM32.3823 44.8156C25.6446 44.8156 19.9083 36.9945 19.9083 29.1847C19.9083 21.3749 25.6446 13.5537 32.3823 13.5537H35.1269C35.1777 4.69995 38.9184 1.0307 43.5255 1.0307C48.1326 1.0307 51.8733 4.69996 51.9241 13.5537H54.6686C61.4063 13.5537 67.1426 21.3749 67.1426 29.1847C67.1426 36.9945 61.4063 44.8156 54.6686 44.8156H55.4173C55.4173 54.5917 50.0931 62.9146 43.5255 62.9146C36.9579 62.9146 31.6337 54.5917 31.6337 44.8156H32.3823Z" fill="black"/>
<path d="M53.4644 12.6445C53.1584 17.3132 51.5066 32.0349 48.1137 40.1449C45.0205 47.5385 41.6291 50.3059 38.2731 51.3286C34.917 52.3514 30.7934 50.7326 30.7934 50.7326L30.7912 44.8141" stroke="black" stroke-width="3.2"/>
<path d="M33.5798 12.9043C33.8858 17.573 35.4338 32.0369 38.8277 40.1468C41.9218 47.5403 45.3145 50.3076 48.6718 51.3303C52.0291 52.3529 56.1542 50.734 56.1542 50.734L56.1566 44.803" stroke="black" stroke-width="3.2"/>
<path d="M3.4124 91.0387C2.81026 91.0387 2.20096 90.967 1.58448 90.8237C0.968011 90.666 0.451894 90.4079 0.0361328 90.0495L1.00385 87.8345C1.26191 88.1356 1.54864 88.3649 1.86405 88.5226C2.19379 88.666 2.59521 88.7377 3.06832 88.7377C3.51275 88.7377 3.87117 88.6588 4.14356 88.5011C4.41596 88.3434 4.61667 88.0567 4.7457 87.6409C4.88907 87.2252 4.96075 86.6302 4.96075 85.856V75.0176H7.34779V86.4582C7.34779 88.0639 6.98221 89.2323 6.25104 89.9635C5.53421 90.6803 4.588 91.0387 3.4124 91.0387Z" fill="black"/>
<path d="M19.3507 75.0176L26.9634 90.8452H24.1893L22.8345 87.7485H15.5873L14.2325 90.8452H11.5444L19.1141 75.0176H19.3507ZM18.2755 81.7486L16.5551 85.5765H21.8883L20.1894 81.7701L19.2647 79.5981H19.2217L18.2755 81.7486Z" fill="black"/>
<path d="M33.2561 77.1251H29.2131V75.0176H39.729V77.1251H35.6431V90.8237H33.2561V77.1251Z" fill="black"/>
<path d="M50.3079 91.0387C48.3294 91.0387 46.8958 90.4437 46.0069 89.2538C45.118 88.0639 44.6736 86.3363 44.6736 84.0711V75.0176H47.0821V84.1141C47.0821 85.7915 47.333 86.9958 47.8348 87.727C48.3366 88.4438 49.1609 88.8022 50.3079 88.8022C51.4548 88.8022 52.272 88.451 52.7594 87.7485C53.2612 87.0316 53.5121 85.8202 53.5121 84.1141V75.0176H55.9421V84.0711C55.9421 86.322 55.469 88.0495 54.5228 89.2538C53.5909 90.4437 52.186 91.0387 50.3079 91.0387Z" fill="black"/>
<path d="M67.8234 75.0176L75.4361 90.8452H72.662L71.3071 87.7485H64.06L62.7052 90.8452H60.0171L67.5868 75.0176H67.8234ZM66.7481 81.7486L65.0277 85.5765H70.3609L68.662 81.7701L67.7373 79.5981H67.6943L66.7481 81.7486Z" fill="black"/>
<path d="M83.5977 91.0387C84.1999 91.0387 84.8092 90.967 85.4257 90.8237C86.0421 90.666 86.5582 90.4079 86.974 90.0495L86.0063 87.8345C85.7482 88.1356 85.4615 88.3649 85.1461 88.5226C84.8164 88.666 84.4149 88.7377 83.9418 88.7377C83.4974 88.7377 83.139 88.6588 82.8666 88.5011C82.5942 88.3434 82.3935 88.0567 82.2644 87.6409C82.1211 87.2252 82.0494 86.6302 82.0494 85.856V75.0176H79.6624V86.4582C79.6624 88.0639 80.0279 89.2323 80.7591 89.9635C81.4759 90.6803 82.4221 91.0387 83.5977 91.0387Z" fill="black"/>
<path d="M29.9128 96.9765H31.0051C31.6208 96.9765 32.0703 97.1091 32.3535 97.3743C32.6411 97.635 32.785 97.9946 32.785 98.453C32.785 98.9834 32.6299 99.3902 32.3198 99.6733C32.0096 99.9565 31.5489 100.098 30.9376 100.098H30.6747V101.932H29.9128V96.9765ZM30.9579 99.4306C31.3534 99.4306 31.6298 99.343 31.7871 99.1677C31.9445 98.9924 32.0231 98.7811 32.0231 98.5339C32.0231 98.2687 31.9467 98.053 31.7939 97.8867C31.6411 97.7204 31.3849 97.6372 31.0253 97.6372H30.6747V99.4306H30.9579Z" fill="black"/>
<path d="M37.6297 96.9698L40.0164 101.932H39.1467L38.7219 100.961H36.4499L36.0251 101.932H35.1823L37.5556 96.9698H37.6297ZM37.2926 99.08L36.7532 100.28H38.4253L37.8927 99.0868L37.6027 98.4058H37.5893L37.2926 99.08Z" fill="black"/>
<path d="M45.6027 101.932L44.6049 100.058C44.3981 100.067 44.2138 100.071 44.052 100.071H43.8632V101.932H43.1283V96.9765H44.2543C44.8251 96.9765 45.2948 97.0956 45.6634 97.3338C46.0319 97.5676 46.2162 97.9496 46.2162 98.48C46.2162 98.8126 46.1376 99.1003 45.9802 99.343C45.8274 99.5812 45.5982 99.7655 45.2926 99.8958L46.4724 101.932H45.6027ZM44.3419 99.4576C44.7824 99.4576 45.0835 99.3632 45.2454 99.1744C45.4117 98.9811 45.4948 98.7519 45.4948 98.4867C45.4948 97.8979 45.1015 97.6035 44.315 97.6035H43.8632V99.4576H44.3419Z" fill="black"/>
<path d="M50.0279 96.9765H50.783V101.932H50.0279V96.9765Z" fill="black"/>
<path d="M55.7582 101.999C55.4886 101.999 55.2211 101.952 54.9559 101.858C54.6907 101.763 54.4997 101.658 54.3829 101.541L54.7402 100.9C54.8346 100.986 54.9807 101.076 55.1784 101.17C55.3807 101.26 55.574 101.305 55.7582 101.305C55.9965 101.305 56.1897 101.249 56.3381 101.136C56.4909 101.024 56.5673 100.869 56.5673 100.671C56.5673 100.518 56.5268 100.386 56.4459 100.273C56.365 100.161 56.2661 100.069 56.1493 99.997C56.0324 99.9205 55.8661 99.8284 55.6504 99.7205C55.3942 99.5947 55.2189 99.5003 55.1245 99.4374C54.6885 99.1452 54.4705 98.7407 54.4705 98.2238C54.4705 97.7968 54.6121 97.4709 54.8953 97.2462C55.1784 97.017 55.5358 96.9023 55.9672 96.9023C56.4302 96.9023 56.8235 97.0349 57.1471 97.3001L56.7898 97.9137C56.7044 97.8238 56.583 97.7473 56.4257 97.6844C56.2729 97.617 56.1088 97.5833 55.9335 97.5833C55.7088 97.5833 55.5313 97.635 55.4009 97.7384C55.2751 97.8372 55.2121 97.9856 55.2121 98.1833C55.2121 98.3227 55.2526 98.4485 55.3335 98.5609C55.4144 98.6688 55.5155 98.7632 55.6369 98.8441C55.7627 98.925 55.9313 99.0238 56.1425 99.1407C56.3448 99.2531 56.4999 99.343 56.6077 99.4104C56.7156 99.4733 56.8167 99.5497 56.9111 99.6396C57.0415 99.7565 57.1471 99.8958 57.228 100.058C57.3089 100.219 57.3494 100.397 57.3494 100.59C57.3494 100.891 57.2797 101.148 57.1404 101.359C57.0055 101.57 56.8167 101.73 56.574 101.838C56.3358 101.945 56.0639 101.999 55.7582 101.999Z" fill="black"/>
</svg>
