<svg width="96" height="113" viewBox="0 0 96 113" fill="none" xmlns="http://www.w3.org/2000/svg">
<g clip-path="url(#clip0_77_25)">
<path fill-rule="evenodd" clip-rule="evenodd" d="M47.9872 70.7212C63.2919 70.7212 75.6989 54.8897 75.6989 35.3607C75.6989 15.8315 63.2919 0 47.9872 0C32.6824 0 20.2754 15.8315 20.2754 35.3607C20.2754 54.8897 32.6824 70.7212 47.9872 70.7212ZM35.7069 49.5605C28.2693 49.5605 21.9372 40.9112 21.9372 32.2746C21.9372 23.638 28.2693 14.9887 35.7069 14.9887H38.7366C38.7926 5.19748 42.9218 1.13973 48.0075 1.13973C53.093 1.13974 57.2223 5.19748 57.2783 14.9887H60.308C67.7456 14.9887 74.0776 23.638 74.0776 32.2746C74.0776 40.9112 67.7456 49.5605 60.308 49.5605H61.1344C61.1344 60.3715 55.2573 69.5756 48.0075 69.5756C40.7576 69.5756 34.8806 60.3715 34.8806 49.5605H35.7069Z" fill="black"/>
<path d="M58.9774 13.9832C58.6397 19.1462 56.8163 35.4265 53.0711 44.3953C49.6567 52.5716 45.9129 55.6319 42.2083 56.763C38.5037 57.894 33.9517 56.1039 33.9517 56.1039L33.9492 49.5588" stroke="black" stroke-width="16.2"/>
<path d="M37.0273 14.2695C37.3651 19.4325 39.074 35.4278 42.8205 44.3963C46.2359 52.5726 49.9809 55.633 53.687 56.7638C57.393 57.8948 61.9465 56.1045 61.9465 56.1045L61.9492 49.5455" stroke="black" stroke-width="16.2"/>
<path d="M3.72696 100.678C3.06228 100.678 2.38967 100.599 1.70917 100.44C1.02867 100.266 0.458944 99.9807 0 99.5844L1.06823 97.1347C1.3531 97.4677 1.66961 97.7213 2.01777 97.8958C2.38177 98.0543 2.82489 98.1336 3.34712 98.1336C3.83772 98.1336 4.23337 98.0464 4.53406 97.8721C4.83475 97.6976 5.0563 97.3805 5.19874 96.9208C5.35699 96.4611 5.43613 95.803 5.43613 94.9468V82.9609H8.07109V95.6128C8.07109 97.3886 7.66754 98.6806 6.86043 99.4892C6.06915 100.282 5.02466 100.678 3.72696 100.678Z" fill="black"/>
<path d="M21.3202 82.9609L29.7236 100.464H26.6614L25.1658 97.0396H17.166L15.6704 100.464H12.7031L21.0591 82.9609H21.3202ZM20.1333 90.4046L18.2342 94.6377H24.1214L22.246 90.4283L21.2252 88.0264H21.1777L20.1333 90.4046Z" fill="black"/>
<path d="M36.6699 85.2915H32.207V82.9609H43.8154V85.2915H39.305V100.44H36.6699V85.2915Z" fill="black"/>
<path d="M55.4929 100.678C53.309 100.678 51.7263 100.02 50.7452 98.7045C49.764 97.3886 49.2734 95.4779 49.2734 92.973V82.9609H51.932V93.0206C51.932 94.8756 52.209 96.2072 52.7628 97.0159C53.3168 97.8086 54.2269 98.2049 55.4929 98.2049C56.759 98.2049 57.6609 97.8165 58.199 97.0396C58.753 96.2469 59.0298 94.9073 59.0298 93.0206V82.9609H61.7124V92.973C61.7124 95.4622 61.1901 97.3726 60.1455 98.7045C59.1169 100.02 57.5659 100.678 55.4929 100.678Z" fill="black"/>
<path d="M74.8279 82.9609L83.2313 100.464H80.1691L78.6735 97.0396H70.6738L69.1782 100.464H66.2109L74.5669 82.9609H74.8279ZM73.6411 90.4046L71.742 94.6377H77.6291L75.7537 90.4283L74.733 88.0264H74.6855L73.6411 90.4046Z" fill="black"/>
<path d="M92.2407 100.678C92.9055 100.678 93.5779 100.599 94.2584 100.44C94.9389 100.266 95.5087 99.9807 95.9677 99.5844L94.8995 97.1347C94.6146 97.4677 94.298 97.7213 93.9499 97.8958C93.586 98.0543 93.1427 98.1336 92.6206 98.1336C92.13 98.1336 91.7342 98.0464 91.4336 97.8721C91.1329 97.6976 90.9115 97.3805 90.769 96.9208C90.6106 96.4611 90.5316 95.803 90.5316 94.9468V82.9609H87.8965V95.6128C87.8965 97.3886 88.3002 98.6806 89.1072 99.4892C89.8986 100.282 90.943 100.678 92.2407 100.678Z" fill="black"/>
<path d="M32.9805 107.245H34.186C34.8658 107.245 35.362 107.391 35.6745 107.684C35.9921 107.973 36.1507 108.371 36.1507 108.877C36.1507 109.464 35.9797 109.914 35.6374 110.227C35.295 110.54 34.7864 110.697 34.1115 110.697H33.8215V112.725H32.9805V107.245ZM34.1339 109.959C34.5706 109.959 34.8758 109.862 35.0493 109.668C35.2231 109.474 35.3098 109.24 35.3098 108.967C35.3098 108.674 35.2256 108.435 35.0568 108.251C34.888 108.067 34.6052 107.975 34.2084 107.975H33.8215V109.959H34.1339Z" fill="black"/>
<path d="M41.4984 107.237L44.1331 112.725H43.1729L42.7041 111.651H40.196L39.727 112.725H38.7969L41.4164 107.237H41.4984ZM41.1262 109.571L40.5309 110.898H42.3767L41.7886 109.578L41.4687 108.825H41.4538L41.1262 109.571Z" fill="black"/>
<path d="M50.2997 112.725L49.1983 110.652C48.97 110.662 48.7666 110.667 48.5881 110.667H48.3797V112.725H47.5684V107.245H48.8112C49.4413 107.245 49.9599 107.376 50.3667 107.64C50.7735 107.898 50.9769 108.321 50.9769 108.907C50.9769 109.275 50.8902 109.593 50.7165 109.862C50.5479 110.125 50.2947 110.329 49.9574 110.473L51.2597 112.725H50.2997ZM48.908 109.988C49.3942 109.988 49.7266 109.884 49.9053 109.675C50.0888 109.461 50.1807 109.208 50.1807 108.915C50.1807 108.264 49.7465 107.938 48.8781 107.938H48.3797V109.988H48.908Z" fill="black"/>
<path d="M55.1836 107.245H56.0171V112.725H55.1836V107.245Z" fill="black"/>
<path d="M61.5104 112.799C61.2126 112.799 60.9174 112.747 60.6246 112.643C60.332 112.538 60.1212 112.421 59.9922 112.292L60.3865 111.584C60.4906 111.678 60.652 111.778 60.8703 111.882C61.0936 111.982 61.307 112.031 61.5104 112.031C61.7733 112.031 61.9866 111.969 62.1504 111.845C62.319 111.721 62.4034 111.549 62.4034 111.33C62.4034 111.161 62.3588 111.015 62.2694 110.891C62.1801 110.766 62.071 110.664 61.942 110.585C61.8131 110.5 61.6294 110.398 61.3913 110.279C61.1085 110.14 60.9149 110.036 60.8108 109.966C60.3295 109.643 60.0888 109.196 60.0888 108.624C60.0888 108.152 60.2451 107.791 60.5576 107.543C60.8703 107.289 61.2647 107.163 61.7411 107.163C62.252 107.163 62.6862 107.309 63.0434 107.602L62.6491 108.281C62.5547 108.181 62.4208 108.097 62.247 108.027C62.0785 107.953 61.8973 107.916 61.7038 107.916C61.4558 107.916 61.2597 107.973 61.1158 108.087C60.9769 108.196 60.9074 108.361 60.9074 108.579C60.9074 108.733 60.9522 108.872 61.0415 108.997C61.1307 109.116 61.2425 109.22 61.3764 109.31C61.5153 109.399 61.7013 109.509 61.9346 109.638C62.1579 109.762 62.3289 109.862 62.448 109.936C62.5672 110.006 62.6787 110.09 62.783 110.19C62.9269 110.319 63.0434 110.473 63.1328 110.652C63.222 110.831 63.2668 111.027 63.2668 111.241C63.2668 111.574 63.1898 111.857 63.036 112.091C62.8871 112.324 62.6787 112.501 62.4108 112.62C62.1479 112.74 61.8477 112.799 61.5104 112.799Z" fill="black"/>
</g>
<defs>
<clipPath id="clip0_77_25">
<rect width="96" height="113" fill="white"/>
</clipPath>
</defs>
</svg>
