<?xml version="1.0" standalone="no"?>
<!DOCTYPE svg PUBLIC "-//W3C//DTD SVG 20010904//EN"
 "http://www.w3.org/TR/2001/REC-SVG-20010904/DTD/svg10.dtd">
<svg version="1.0" xmlns="http://www.w3.org/2000/svg"
 width="904.000000pt" height="904.000000pt" viewBox="0 0 904.000000 904.000000"
 preserveAspectRatio="xMidYMid meet">
<metadata>
Created by potrace 1.14, written by Peter Selinger 2001-2017
</metadata>
<g transform="translate(0.000000,904.000000) scale(0.100000,-0.100000)"
fill="#000000" stroke="none">
<path d="M4379 9036 c-2 -2 -31 -6 -64 -9 -33 -3 -60 -6 -60 -7 0 -1 -9 -3
-20 -4 -73 -11 -118 -20 -194 -42 -47 -13 -95 -28 -106 -33 -11 -5 -47 -19
-80 -32 -113 -42 -278 -132 -408 -221 -254 -175 -516 -465 -697 -772 -64 -108
-170 -321 -170 -340 0 -9 -4 -16 -10 -16 -5 0 -10 -8 -10 -18 0 -10 -3 -22 -7
-26 -5 -4 -8 -11 -9 -14 0 -4 -5 -18 -11 -32 -6 -14 -18 -47 -27 -75 -9 -27
-20 -59 -25 -70 -5 -11 -17 -47 -26 -80 -9 -33 -21 -71 -25 -85 -12 -33 -49
-185 -56 -229 -3 -18 -8 -43 -10 -55 -5 -25 -13 -70 -19 -111 -2 -16 -6 -41
-9 -55 -3 -14 -7 -50 -10 -80 -3 -30 -8 -86 -12 -125 -14 -134 -8 -558 10
-700 14 -109 35 -243 50 -315 3 -14 9 -38 12 -55 22 -107 88 -328 129 -435 28
-74 87 -214 98 -235 6 -11 12 -22 12 -25 2 -8 59 -119 93 -181 l31 -55 0 -194
c-1 -154 2 -196 12 -202 12 -6 84 -36 92 -38 1 0 81 -31 177 -70 132 -52 186
-79 220 -109 25 -21 61 -52 80 -67 19 -16 37 -31 40 -34 3 -3 19 -14 35 -26
17 -11 53 -36 80 -55 66 -46 194 -119 275 -156 100 -47 293 -114 320 -112 3 0
18 -4 33 -10 15 -6 47 -14 70 -17 23 -3 51 -7 62 -9 160 -27 415 -27 555 0 14
2 41 7 60 10 192 32 456 140 645 264 39 25 75 48 80 50 19 8 192 149 225 184
14 14 160 79 205 91 6 2 21 8 35 13 118 50 206 83 217 83 16 0 15 -15 17 215
l2 190 43 75 c52 91 123 239 162 339 39 96 109 301 104 301 -2 0 3 16 11 35 8
19 12 35 9 35 -2 0 0 12 6 26 11 30 46 186 55 242 5 38 10 63 17 97 3 11 8 49
12 85 5 36 9 74 11 85 22 172 22 641 0 765 -3 14 -7 50 -10 80 -12 122 -60
358 -101 505 -1 6 -2 12 -2 15 0 3 -5 14 -11 26 -6 11 -13 32 -15 45 -14 77
-172 459 -218 529 -5 8 -15 27 -22 43 -6 15 -15 27 -19 27 -4 0 -8 5 -8 12 0
20 -186 301 -235 354 -5 7 -26 31 -45 55 -35 45 -246 258 -291 294 -13 11 -62
48 -109 83 -47 34 -89 66 -95 70 -5 5 -17 11 -25 15 -8 4 -33 18 -55 32 -22
14 -56 33 -75 43 -19 9 -36 20 -38 25 -2 4 -10 7 -18 7 -7 0 -30 9 -50 20 -96
55 -359 133 -519 155 -52 8 -370 17 -376 11z m261 -96 c3 -1 8 -2 12 -1 14 1
145 -47 183 -69 157 -87 270 -236 341 -447 14 -43 27 -84 29 -93 2 -8 7 -33
13 -55 6 -22 13 -62 17 -88 3 -27 8 -58 11 -70 2 -12 6 -58 9 -103 l4 -82 -67
4 c-72 4 -162 9 -311 19 -52 3 -97 8 -101 10 -3 2 -11 1 -17 -3 -10 -6 -15
-40 -29 -197 -10 -115 -14 -155 -18 -181 -3 -16 -8 -56 -11 -89 -3 -33 -8 -73
-11 -89 -3 -16 -7 -48 -9 -70 -6 -55 -14 -115 -20 -146 -3 -14 -7 -45 -10 -70
-3 -25 -10 -67 -15 -95 -5 -27 -12 -68 -14 -90 -3 -22 -5 -40 -6 -40 -1 0 -3
-9 -4 -20 -4 -29 -13 -79 -31 -170 -9 -44 -18 -96 -21 -115 -3 -19 -9 -48 -14
-65 -5 -16 -12 -46 -16 -65 -3 -19 -7 -42 -9 -50 -2 -8 -4 -22 -5 -30 -2 -19
-16 27 -24 77 -3 21 -8 49 -12 63 -3 14 -7 35 -9 47 -2 11 -6 29 -9 40 -5 17
-12 56 -21 113 -2 14 -6 36 -9 50 -4 21 -18 104 -41 241 -3 14 -7 43 -10 65
-2 21 -7 55 -10 74 -2 19 -7 54 -10 76 -9 67 -14 108 -31 236 -3 24 -7 66 -10
93 -3 28 -7 64 -9 80 -2 17 -7 71 -11 120 -3 50 -8 97 -10 105 -1 8 -3 30 -3
48 l-1 33 -92 -7 c-121 -8 -190 -12 -316 -19 l-103 -6 6 88 c3 48 8 99 10 113
3 14 8 45 11 70 9 65 12 85 14 85 2 0 9 32 15 65 2 14 4 26 6 28 1 1 2 5 4 10
2 8 7 21 41 113 28 75 82 168 134 231 49 59 111 117 132 124 10 3 18 9 18 13
0 6 39 26 125 61 34 14 57 20 94 26 20 3 37 7 39 9 4 4 205 -1 212 -5z m-1625
-1328 c1 -15 6 -58 10 -97 4 -38 9 -83 11 -100 4 -43 13 -118 24 -205 5 -41
12 -95 15 -120 2 -25 7 -54 9 -65 2 -11 7 -47 11 -80 4 -32 8 -66 10 -75 1 -8
5 -31 9 -50 3 -19 8 -52 12 -74 3 -21 7 -47 9 -56 2 -10 7 -40 11 -67 3 -26 9
-57 11 -68 2 -11 7 -33 9 -50 17 -93 75 -383 88 -432 8 -32 17 -69 20 -83 9
-45 14 -67 36 -151 12 -46 24 -91 27 -99 3 -8 8 -23 10 -33 6 -34 64 -212 104
-322 44 -119 42 -114 92 -227 23 -50 31 -78 24 -80 -25 -8 -117 -1 -202 16
-81 16 -281 107 -325 148 -11 10 -24 18 -30 18 -12 0 -250 236 -250 249 0 5
-6 16 -14 24 -66 66 -216 368 -252 507 -39 154 -55 268 -56 410 -1 95 4 173
18 255 15 91 66 269 93 330 67 148 119 244 151 282 5 7 10 15 10 18 0 23 192
234 265 292 33 26 38 24 40 -15z m3064 4 c125 -104 292 -314 341 -429 6 -12
14 -29 19 -37 50 -82 126 -316 146 -450 2 -14 7 -45 11 -70 7 -48 8 -299 1
-340 -19 -117 -21 -127 -37 -194 -13 -59 -50 -177 -59 -191 -4 -5 -18 -37 -31
-70 -26 -67 -128 -248 -141 -253 -5 -2 -9 -10 -9 -18 0 -8 -4 -14 -8 -14 -4 0
-16 -15 -27 -32 -33 -58 -217 -232 -302 -287 -45 -29 -85 -52 -89 -51 -4 1
-10 -2 -13 -8 -7 -11 -119 -56 -176 -71 -69 -18 -218 -33 -241 -24 -8 3 -6 16
6 41 24 51 67 149 75 172 2 6 9 25 32 85 20 52 102 304 108 330 2 11 13 54 25
95 12 41 23 82 25 90 2 8 8 33 13 55 6 22 13 51 16 65 2 14 12 57 21 95 19 77
25 107 30 145 2 14 4 25 5 25 2 0 6 16 14 59 3 16 10 54 17 85 6 30 13 64 14
75 2 12 6 32 9 46 3 14 8 43 11 65 3 22 12 76 20 120 8 44 17 94 19 110 10 63
15 102 21 150 4 28 9 64 12 80 3 17 6 41 8 55 2 14 6 50 10 80 11 86 14 110
20 180 3 36 8 72 10 80 6 20 18 139 18 168 -1 30 8 28 56 -12z m-1503 -3654
c94 -45 166 -72 267 -98 4 -1 8 -2 10 -4 11 -8 141 -27 245 -34 29 -2 56 -7
59 -10 9 -8 -130 -144 -192 -188 -53 -38 -185 -112 -185 -104 0 3 -15 -1 -33
-9 -109 -45 -337 -52 -412 -13 -11 6 -21 10 -23 9 -12 -11 -211 90 -220 111
-2 4 -9 8 -16 8 -11 0 -168 146 -193 180 -10 13 -1 15 59 17 75 2 219 26 278
45 19 7 40 13 45 14 20 3 171 64 210 84 21 11 40 20 40 20 1 0 28 -13 61 -28z"/>
<path d="M1121 2400 c-4 -3 -7 -232 -7 -510 0 -278 -3 -523 -6 -545 -16 -118
-68 -162 -180 -153 -62 6 -141 34 -133 49 6 9 -24 21 -36 13 -5 -3 -9 -9 -9
-14 0 -10 -43 -112 -61 -143 -13 -23 -6 -33 43 -58 64 -33 146 -50 233 -50 96
-1 113 3 183 37 93 46 147 124 170 249 5 33 8 1125 2 1126 -21 4 -193 3 -199
-1z"/>
<path d="M2325 2319 c-22 -49 -44 -89 -49 -89 -5 0 -7 -3 -4 -6 4 -3 -11 -41
-33 -85 -21 -43 -39 -83 -39 -89 0 -5 -4 -10 -10 -10 -5 0 -9 -3 -8 -7 1 -5
-19 -52 -45 -106 -26 -54 -47 -103 -47 -108 0 -5 -5 -9 -12 -9 -6 0 -9 -3 -6
-6 4 -3 -14 -46 -38 -95 -74 -150 -117 -244 -116 -251 1 -3 -5 -12 -13 -18 -8
-7 -15 -17 -15 -22 0 -6 -20 -52 -45 -104 -25 -52 -65 -136 -89 -186 -25 -51
-46 -100 -48 -108 -2 -13 15 -15 115 -16 64 0 117 3 117 8 0 4 12 33 27 65 15
32 28 63 29 68 1 6 15 37 31 70 l28 60 323 1 c279 0 333 -3 320 -19 -2 -2 4
-14 12 -27 9 -14 35 -70 59 -126 l43 -101 119 1 c65 0 119 3 119 7 0 8 -95
208 -305 644 -68 141 -112 232 -244 510 -95 198 -114 234 -127 239 -6 2 -28
-36 -49 -85z m60 -337 c0 -4 8 -23 17 -42 9 -19 28 -64 43 -100 15 -35 41 -94
57 -130 16 -36 36 -78 43 -95 25 -58 57 -130 62 -137 2 -5 -102 -8 -231 -8
l-236 0 12 29 c176 401 233 519 233 483z"/>
<path d="M3261 2395 c-8 -11 -7 -157 2 -171 3 -5 82 -9 176 -8 114 0 171 -3
173 -10 2 -6 3 -278 3 -603 -1 -326 1 -594 4 -594 22 -5 201 -4 202 0 1 3 2
276 3 606 l1 600 180 0 180 1 0 94 0 94 -458 1 c-295 0 -461 -4 -466 -10z"/>
<path d="M4630 2400 c-10 -6 -6 -951 4 -992 3 -15 10 -38 16 -52 5 -13 7 -26
4 -28 -9 -9 39 -117 75 -168 79 -111 187 -164 358 -173 93 -6 194 13 268 48
75 35 185 148 185 190 0 8 3 15 8 15 6 0 43 105 45 127 0 4 4 24 10 43 5 19
10 250 11 512 3 430 1 477 -13 480 -9 2 -56 3 -106 3 l-90 -1 -2 -440 c-1
-418 -3 -469 -18 -557 -25 -146 -110 -219 -255 -220 -122 -1 -190 30 -236 108
-54 92 -57 124 -58 642 -1 248 -5 455 -9 459 -9 9 -184 12 -197 4z"/>
<path d="M6640 2400 c0 -5 -30 -71 -66 -147 -37 -76 -86 -178 -109 -228 -23
-49 -73 -153 -110 -230 -124 -257 -175 -367 -175 -376 0 -5 -4 -9 -10 -9 -5 0
-10 -6 -10 -14 0 -8 -13 -41 -30 -73 -16 -31 -30 -63 -30 -70 0 -7 -4 -13 -10
-13 -5 0 -10 -5 -10 -11 0 -9 -68 -160 -90 -201 -6 -10 -10 -19 -10 -21 0 -2
52 -3 116 -3 l117 -1 29 66 c17 36 43 94 59 129 16 35 29 67 29 71 0 4 145 7
322 6 l321 0 21 -46 c37 -80 60 -134 57 -134 -1 0 9 -20 22 -45 l24 -45 121
-1 c67 0 120 2 118 5 -9 16 -120 247 -121 251 0 3 -29 62 -63 133 -34 70 -62
132 -62 137 0 6 -4 10 -10 10 -5 0 -10 4 -10 10 0 13 -47 112 -282 600 -47 96
-93 192 -102 212 -16 34 -46 59 -46 38z m30 -422 c0 -6 8 -29 18 -51 9 -22 58
-133 108 -246 l91 -206 -113 -3 c-62 -1 -167 -1 -233 0 l-120 3 50 110 c27 61
56 124 64 140 28 61 97 221 106 243 9 23 29 30 29 10z"/>
<path d="M7720 2400 c-5 -3 -8 -259 -6 -570 2 -526 3 -569 21 -620 11 -30 32
-73 48 -95 30 -42 111 -104 138 -105 9 0 19 -3 23 -7 11 -11 36 -14 121 -15
92 0 191 22 252 58 l42 24 -34 76 c-19 42 -35 82 -35 89 0 7 -7 18 -15 25 -12
10 -15 9 -15 -4 0 -10 -4 -14 -10 -11 -5 3 -10 2 -10 -3 0 -20 -76 -46 -139
-49 -107 -3 -150 31 -169 139 -5 24 -8 274 -8 555 1 282 -1 513 -4 514 -20 4
-194 3 -200 -1z"/>
<path d="M3353 462 c-26 -3 -33 -8 -34 -25 0 -25 0 -398 0 -410 1 -5 16 -7 34
-5 l32 3 1 60 c2 110 -1 104 44 101 22 -2 40 2 40 7 0 6 3 7 6 4 4 -4 20 1 35
10 79 47 78 197 0 233 -32 15 -114 26 -158 22z m107 -67 c12 -4 28 -22 36 -41
12 -29 12 -37 -3 -69 -11 -22 -24 -35 -37 -36 -12 -1 -31 -3 -43 -4 -12 -1
-24 3 -25 9 -3 9 -2 125 1 147 1 7 40 4 71 -6z"/>
<path d="M5573 462 c-26 -4 -86 -59 -78 -72 3 -5 1 -11 -3 -14 -21 -13 10
-109 41 -124 123 -64 158 -104 129 -150 -11 -16 -72 -34 -72 -21 0 6 -4 7 -10
4 -5 -3 -20 0 -32 7 -13 7 -27 13 -33 13 -9 1 -34 -32 -35 -46 -1 -23 153 -58
166 -37 3 4 13 8 22 8 32 0 72 61 72 110 0 44 -31 83 -99 124 -68 42 -85 59
-87 92 -2 45 62 64 114 35 13 -7 25 -11 27 -9 6 7 25 47 25 53 0 18 -95 36
-147 27z"/>
<path d="M3962 398 c-17 -35 -51 -106 -75 -158 -24 -52 -56 -120 -71 -151 -14
-31 -26 -59 -26 -63 0 -4 17 -6 37 -4 30 3 38 9 46 33 16 50 22 52 125 52 88
0 98 -2 109 -21 7 -12 12 -29 13 -38 0 -10 1 -18 3 -19 26 -6 88 -8 85 -2 -2
4 -18 39 -36 76 -18 37 -64 133 -102 213 -38 79 -71 144 -73 144 -2 0 -18 -28
-35 -62z m74 -151 l32 -72 -57 -5 c-60 -6 -81 -3 -81 10 0 16 64 150 69 145 2
-3 19 -38 37 -78z"/>
<path d="M4485 244 l0 -219 33 -2 32 -3 0 85 0 86 34 -3 c32 -2 37 -7 77 -85
43 -81 45 -83 81 -81 28 1 35 5 30 17 -3 9 -8 18 -11 21 -6 5 -11 14 -57 95
l-23 42 25 24 c33 31 51 67 49 99 -3 59 -6 68 -30 94 -14 15 -25 24 -25 20 0
-3 -7 0 -16 7 -10 8 -52 15 -108 17 l-91 4 0 -218z m155 155 c0 -4 9 -9 20
-12 26 -7 39 -44 29 -81 -13 -45 -32 -58 -88 -63 l-51 -4 0 80 c0 54 4 81 13
84 18 6 77 3 77 -4z"/>
<path d="M5095 243 l0 -218 33 -2 c23 -1 32 3 33 15 4 72 3 105 -4 109 -4 2
-4 9 -1 15 10 15 11 99 1 105 -4 2 -4 9 -1 15 6 9 8 87 5 161 -1 12 -10 17
-34 17 l-33 0 1 -217z"/>
</g>
</svg>
