<?xml version="1.0" standalone="no"?>
<!DOCTYPE svg PUBLIC "-//W3C//DTD SVG 20010904//EN"
 "http://www.w3.org/TR/2001/REC-SVG-20010904/DTD/svg10.dtd">
<svg version="1.0" xmlns="http://www.w3.org/2000/svg"
 width="816.000000pt" height="816.000000pt" viewBox="0 0 816.000000 816.000000"
 preserveAspectRatio="xMidYMid meet">
<metadata>
Created by potrace 1.14, written by Peter Selinger 2001-2017
</metadata>
<g transform="translate(0.000000,816.000000) scale(0.100000,-0.100000)"
fill="#000000" stroke="none">
<path d="M3929 8156 c-2 -2 -24 -6 -49 -10 -25 -3 -63 -8 -85 -11 -109 -15
-279 -72 -434 -146 -102 -49 -285 -163 -310 -193 -8 -9 -17 -16 -22 -16 -12 0
-79 -60 -194 -175 -103 -104 -120 -122 -170 -190 -16 -22 -32 -42 -35 -45 -38
-35 -200 -300 -262 -430 -55 -116 -136 -321 -153 -390 -1 -3 -4 -12 -7 -20 -8
-21 -39 -138 -44 -168 -3 -14 -7 -29 -9 -32 -2 -4 -7 -22 -10 -41 -3 -19 -10
-52 -15 -73 -5 -22 -7 -44 -4 -48 3 -4 1 -8 -3 -8 -5 0 -9 -8 -9 -17 0 -16 -3
-38 -18 -139 -26 -178 -27 -595 -1 -784 1 -8 6 -44 10 -80 5 -36 9 -67 10 -70
1 -3 5 -25 9 -50 9 -51 64 -287 72 -310 3 -8 6 -17 6 -20 0 -3 9 -30 20 -60
11 -30 21 -62 23 -70 20 -88 185 -431 266 -552 21 -33 39 -61 39 -63 0 -9 132
-181 190 -248 147 -168 374 -355 535 -440 98 -52 259 -122 300 -131 6 -2 35
-10 66 -20 55 -16 69 -20 139 -32 19 -4 44 -8 55 -11 113 -22 467 -21 503 1 4
3 26 7 47 10 59 7 206 49 270 77 72 30 101 42 110 45 20 5 244 131 255 143 3
3 24 19 48 35 155 105 347 302 510 521 109 147 307 541 346 690 2 6 6 17 9 25
16 40 68 232 82 305 5 22 9 45 11 50 3 12 12 59 18 95 3 14 7 45 10 70 3 25 8
56 10 70 20 105 28 568 12 700 -4 36 -9 81 -11 100 -4 32 -10 70 -21 145 -3
17 -12 64 -21 105 -8 41 -17 85 -19 97 -2 12 -8 33 -13 45 -5 13 -9 25 -9 28
-1 11 -14 66 -19 80 -3 8 -8 22 -10 30 -2 8 -5 20 -7 25 -3 10 -5 15 -33 90
-8 22 -16 47 -18 55 -14 72 -167 378 -261 523 -137 210 -323 418 -510 567 -57
46 -218 147 -293 185 -158 80 -334 140 -471 161 -25 3 -56 9 -70 11 -30 6
-356 13 -361 9z m302 -96 c24 -7 45 -12 47 -11 1 1 30 -13 65 -30 115 -58 225
-172 282 -293 32 -67 73 -178 80 -213 3 -15 8 -41 12 -58 3 -16 7 -40 7 -52 1
-13 3 -23 6 -23 20 0 16 -404 -5 -490 -2 -8 -7 -51 -10 -94 -4 -43 -8 -86 -10
-95 -1 -9 -6 -45 -10 -81 -4 -36 -9 -74 -11 -85 -2 -11 -6 -38 -9 -60 -3 -22
-7 -51 -10 -65 -2 -14 -7 -47 -11 -75 -3 -27 -8 -59 -10 -70 -7 -36 -17 -110
-18 -127 0 -10 -3 -18 -6 -18 -3 0 -6 -10 -6 -22 -1 -13 -4 -41 -8 -63 -5 -22
-10 -49 -11 -60 -3 -17 -26 -128 -41 -200 -6 -31 -34 -154 -49 -220 -11 -48
-56 -215 -80 -295 -64 -217 -208 -529 -317 -688 l-30 -44 -44 65 c-56 85 -141
247 -197 378 -41 95 -123 327 -133 374 -2 10 -19 80 -38 155 -19 74 -37 146
-40 160 -2 14 -16 79 -29 145 -23 109 -33 164 -42 220 -3 18 -9 49 -19 100 -2
11 -7 45 -12 75 -4 30 -8 57 -9 60 -1 3 -5 34 -10 70 -9 65 -11 78 -14 83 -1
1 -4 22 -5 47 -2 25 -6 59 -9 75 -3 17 -8 53 -12 80 -3 28 -7 66 -10 85 -6 53
-17 150 -20 195 -2 22 -7 76 -11 120 -13 134 -8 274 11 365 2 13 7 41 10 60 8
53 39 156 68 228 92 224 265 372 467 399 19 3 36 6 38 8 8 7 174 -5 213 -15z
m-1065 -1032 c3 -50 14 -168 20 -213 2 -22 6 -60 9 -85 5 -53 15 -143 30 -250
2 -14 7 -52 10 -85 4 -33 8 -62 10 -65 2 -3 6 -30 9 -60 3 -30 8 -66 11 -80 3
-13 7 -42 11 -65 3 -22 10 -60 15 -85 10 -49 20 -112 23 -147 2 -13 6 -26 9
-30 4 -3 7 -16 7 -28 0 -12 16 -93 36 -181 20 -87 37 -166 39 -174 2 -8 10
-42 19 -75 9 -33 19 -71 22 -85 8 -36 10 -43 17 -60 7 -20 28 -88 31 -103 2
-7 6 -19 9 -27 3 -8 15 -44 27 -80 59 -174 189 -446 281 -584 21 -32 39 -62
39 -67 0 -5 4 -9 8 -9 4 0 16 -14 26 -30 17 -30 17 -31 -6 -50 -13 -11 -26
-19 -30 -20 -4 0 -13 -6 -21 -14 -23 -23 -147 -83 -209 -101 -93 -26 -248 -23
-375 8 l-48 12 -2 155 c-1 85 -2 171 -3 191 0 32 -3 35 -27 36 -154 2 -363 87
-493 203 -14 12 -34 30 -45 39 -21 17 -107 111 -136 148 -142 179 -265 483
-288 713 -5 44 -7 276 -3 284 3 5 6 21 8 35 3 27 9 63 19 116 12 62 59 203 91
273 19 40 34 75 34 77 0 3 26 47 57 97 145 235 338 401 548 473 79 26 187 44
199 33 6 -4 11 -23 12 -40z m2014 16 c174 -50 364 -191 505 -374 31 -41 61
-84 66 -95 5 -11 19 -36 31 -55 51 -83 136 -292 143 -350 1 -8 5 -25 9 -37 8
-26 14 -53 24 -113 9 -57 9 -320 0 -380 -22 -148 -57 -264 -124 -408 -40 -87
-133 -242 -145 -242 -5 0 -9 -5 -9 -12 0 -13 -3 -17 -97 -113 -82 -83 -101
-100 -179 -152 -59 -39 -172 -93 -229 -108 -16 -5 -32 -9 -35 -10 -16 -5 -101
-17 -135 -19 l-40 -2 0 -189 -1 -190 -46 -11 c-74 -19 -128 -26 -208 -26 -106
-1 -156 7 -237 40 -76 31 -213 117 -213 134 0 5 22 42 48 81 75 112 101 156
162 277 67 131 159 352 174 415 1 6 15 49 30 97 15 49 29 96 31 105 2 10 4 18
5 18 1 0 3 7 5 15 2 8 17 69 33 135 37 149 97 435 121 580 6 33 13 74 16 90 2
17 8 50 11 75 3 25 8 47 9 50 2 3 6 35 10 70 3 36 8 72 10 80 3 8 7 35 10 60
3 25 7 56 10 70 3 14 7 50 9 80 3 30 7 71 10 90 2 19 8 62 11 95 3 33 8 78 10
100 3 22 7 64 9 93 3 29 7 56 10 61 6 10 100 -3 176 -25z m-1056 -2937 c39
-32 125 -90 136 -92 3 -1 28 -12 55 -27 49 -25 146 -61 201 -74 36 -9 325 -14
339 -6 5 4 24 7 41 9 l32 2 -29 -76 c-16 -42 -33 -81 -37 -87 -4 -6 -7 -13 -8
-16 -2 -9 -34 -75 -47 -94 -35 -55 -99 -154 -114 -176 -39 -57 -183 -189 -254
-233 -78 -48 -182 -90 -254 -102 -75 -12 -191 -7 -245 10 -10 3 -28 8 -41 10
-12 2 -50 18 -85 34 -197 92 -367 272 -484 511 -48 98 -90 198 -90 216 0 2 17
0 38 -3 20 -4 105 -7 187 -7 129 0 161 3 225 23 125 38 246 102 344 180 21 17
41 31 44 31 3 0 23 -15 46 -33z"/>
<path d="M3087 2164 c-3 -4 -38 -6 -76 -6 -39 0 -71 -3 -72 -7 0 -3 -2 -41 -2
-84 l-2 -77 163 0 162 0 1 -527 c1 -291 0 -537 0 -549 -2 -20 2 -21 93 -20 89
0 96 2 97 21 0 11 0 257 0 548 l1 527 164 0 165 0 -2 85 -2 85 -61 -1 c-33 -1
-65 0 -71 1 -5 1 -23 1 -40 0 -16 -1 -43 -3 -58 -4 -16 -1 -30 1 -33 6 -3 5
-10 5 -17 1 -9 -5 -162 -8 -177 -3 -3 2 -9 1 -15 0 -26 -5 -192 -3 -202 3 -5
4 -13 4 -16 1z"/>
<path d="M4306 2163 c-2 -3 -33 -5 -69 -5 l-64 -1 2 -431 c2 -259 7 -451 13
-481 13 -61 49 -161 71 -195 73 -115 191 -171 361 -172 89 -1 186 19 218 45 6
5 12 6 12 3 0 -8 10 -1 73 55 51 45 119 169 131 239 3 19 9 46 12 60 7 29 12
836 6 863 -4 14 -11 18 -29 14 -13 -2 -26 0 -29 5 -3 4 -9 6 -13 3 -5 -2 -33
-5 -64 -6 l-56 -2 -1 -141 c0 -78 -1 -148 -1 -156 0 -8 0 -62 0 -120 1 -58 1
-114 0 -125 0 -11 0 -63 0 -115 1 -175 -9 -261 -35 -311 -8 -16 -14 -32 -13
-35 3 -16 -59 -65 -100 -79 -134 -44 -269 -3 -318 95 -21 43 -25 57 -39 140
-4 19 -7 217 -8 439 l-1 405 -27 7 c-15 4 -29 5 -32 2z"/>
<path d="M999 2157 c0 -1 -2 -220 -3 -487 -2 -470 -3 -486 -23 -532 -26 -56
-50 -71 -125 -74 -44 -2 -68 3 -107 23 -28 13 -51 29 -51 35 0 6 -6 6 -15 -2
-8 -6 -14 -15 -13 -18 1 -4 -8 -29 -21 -57 -42 -93 -41 -98 26 -127 32 -15 78
-29 103 -33 61 -9 139 -12 145 -7 3 3 17 6 32 7 110 11 207 114 231 246 6 32
10 254 9 539 l-2 485 -92 2 c-51 1 -93 1 -94 0z"/>
<path d="M2059 2013 c-39 -82 -84 -175 -99 -208 -15 -33 -65 -136 -110 -230
-45 -93 -105 -217 -133 -275 -28 -58 -51 -107 -52 -110 0 -3 -18 -41 -39 -85
-21 -44 -52 -107 -67 -139 -16 -33 -29 -63 -29 -68 0 -5 47 -8 104 -7 l105 1
50 115 c28 64 51 119 51 124 0 4 132 8 294 9 l293 0 13 -32 c8 -18 33 -74 56
-125 l43 -92 106 0 c127 -1 125 -25 12 209 -43 91 -106 221 -139 290 -33 69
-86 179 -118 245 -57 119 -193 400 -232 483 -11 23 -24 42 -29 42 -5 0 -41
-66 -80 -147z m114 -295 c14 -35 59 -138 100 -230 42 -93 75 -169 74 -169 -9
-7 -417 -4 -417 3 0 4 4 16 9 26 5 9 19 37 30 62 11 25 35 79 53 120 19 41 52
116 74 166 21 51 42 90 45 88 4 -2 18 -32 32 -66z"/>
<path d="M5991 2128 c-8 -18 -50 -107 -94 -198 -44 -91 -96 -201 -117 -245
-21 -44 -66 -138 -101 -210 -34 -71 -63 -132 -64 -135 0 -3 -27 -58 -58 -122
-31 -65 -57 -122 -57 -128 0 -5 -4 -10 -10 -10 -5 0 -10 -6 -10 -12 0 -7 -16
-44 -35 -83 -19 -38 -35 -76 -35 -82 0 -10 27 -13 103 -13 l103 0 44 103 c24
56 49 112 55 124 l10 23 290 0 290 0 14 -32 c7 -18 32 -74 54 -125 l40 -92
109 0 c59 -1 108 1 108 3 0 7 -56 127 -140 301 -130 269 -183 380 -185 385 0
3 -40 86 -88 185 -48 99 -111 228 -140 287 -29 59 -57 108 -62 108 -6 0 -17
-15 -24 -32z m139 -593 c34 -77 70 -157 80 -177 12 -26 14 -38 7 -40 -42 -5
-407 -2 -407 4 0 4 12 33 27 65 14 32 27 60 28 63 5 14 26 62 57 130 19 41 47
106 63 144 l29 69 28 -59 c15 -33 55 -122 88 -199z"/>
<path d="M6984 2153 c-13 -10 -13 -974 0 -1038 38 -180 193 -267 407 -229 84
16 159 50 159 74 0 10 -16 52 -35 95 l-36 78 -22 -21 c-38 -35 -89 -52 -150
-47 -75 5 -95 18 -120 73 -20 46 -21 62 -22 532 l0 485 -85 3 c-47 1 -90 -1
-96 -5z"/>
<path d="M3007 400 c-11 -4 -14 -45 -14 -197 0 -106 2 -193 6 -194 3 0 16 -2
29 -5 16 -3 22 1 23 14 1 9 2 42 4 72 1 30 3 57 4 60 0 3 19 6 40 6 83 4 132
62 121 142 -8 51 -43 91 -88 98 -50 8 -110 10 -125 4z m139 -78 c19 -24 17
-66 -3 -90 -16 -18 -45 -27 -78 -23 -15 1 -15 124 -1 134 17 12 67 -1 82 -21z"/>
<path d="M4088 402 l-38 -3 0 -197 0 -198 28 2 c26 1 27 2 32 75 5 71 6 74 31
76 23 2 31 -7 64 -70 21 -40 39 -74 41 -76 7 -8 64 -8 64 1 0 5 -18 40 -40 77
-45 76 -48 87 -21 96 42 13 60 106 31 160 -21 39 -106 64 -192 57z m121 -70
c27 -20 34 -52 20 -89 -9 -23 -35 -35 -86 -39 l-33 -2 0 73 c0 50 4 75 13 78
23 7 60 -2 86 -21z"/>
<path d="M4624 401 c-20 -6 -21 -13 -21 -199 -1 -105 2 -192 6 -193 3 0 16 -2
29 -5 16 -3 22 1 23 14 6 114 2 368 -6 377 -5 7 -19 9 -31 6z"/>
<path d="M5025 398 c-89 -29 -87 -161 3 -202 89 -41 120 -91 76 -125 -25 -20
-67 -17 -109 7 -16 8 -21 5 -32 -15 -11 -22 -11 -27 4 -39 23 -16 91 -26 132
-19 71 12 105 84 76 157 -4 9 -37 36 -73 60 -78 49 -82 54 -82 90 0 22 6 29
33 36 23 6 40 5 60 -5 26 -13 30 -13 43 4 18 25 17 30 -7 44 -29 15 -87 19
-124 7z"/>
<path d="M3595 390 c-3 -5 -3 -10 0 -10 4 0 -3 -13 -14 -29 -12 -16 -21 -32
-21 -36 0 -7 -91 -200 -121 -256 -26 -49 -24 -55 13 -54 27 1 34 6 48 40 l17
40 69 -2 c38 0 79 -2 91 -2 14 -1 27 -13 40 -38 15 -32 23 -38 51 -38 17 -1
32 0 32 1 0 8 -190 394 -194 394 -3 0 -8 -4 -11 -10z m41 -167 c14 -32 24 -60
24 -62 -1 -2 4 -8 12 -12 8 -6 0 -9 -24 -10 -47 -1 -85 -1 -97 0 -8 1 48 141
56 141 2 0 15 -26 29 -57z"/>
</g>
</svg>
